<svg xmlns="http://www.w3.org/2000/svg" viewBox="0 0 40 26"><path fill="#fff" d="M0 0h40v26H0z"/><path fill="#55b147" d="M28.38 13.41h2.44l.04.01h.04l.03.01h.03l.01.01.04.01.04.01.04.02.04.01.04.02.03.02.04.02.04.02.04.02.04.03.04.03.03.04c.02 0 .03.02.04.03l.04.04.04.05.04.05.04.06.04.08.03.09a1.05 1.05 0 0 1 .04.13 1.13 1.13 0 0 1 0 .49 1.05 1.05 0 0 1-.04.13l-.03.09-.04.07-.04.06-.04.06-.04.04-.04.04c0 .02-.02.03-.04.04l-.03.03-.04.03-.04.03-.04.03-.04.02-.04.02-.03.02-.04.02-.04.01-.04.01-.04.01-.04.01h-.01l-.03.01h-.03l-.04.01h-.04l-.04.01h-2.4v-2.1zm3.1-2.38a1.07 1.07 0 0 1 0 .45.96.96 0 0 1-.05.13.93.93 0 0 1-.03.09l-.04.07-.04.06-.04.05-.04.04-.04.04-.03.03-.04.03-.04.03-.04.02-.04.03-.04.02-.04.02-.03.01-.04.02h-.04l-.04.02h-.04l-.04.02h-.07l-.04.01h-2.22V10.3h2.31l.02.01h.01l.04.01.04.01.04.01.04.01.04.02.03.01.04.02.04.02.04.03.04.02.04.03.04.03.03.03.04.04.04.05.04.04.04.06.04.07a.93.93 0 0 1 .03.1.96.96 0 0 1 .04.12zM36.23.97h.02V20.9c0 .12 0 .23-.02.35l-.04.3-.03.2-.04.17-.04.13a4.12 4.12 0 0 1-.08.23l-.04.1-.03.1-.04.08-.04.08-.04.08-.04.07-.04.07-.04.07-.03.06-.04.06-.04.06-.04.06-.04.05-.04.05-.03.05-.04.05-.04.05-.04.05-.04.04-.04.05-.04.04-.03.04-.04.04-.04.04-.04.04-.04.03-.04.04-.03.03-.04.04-.04.03-.04.03-.04.04-.04.03-.04.03-.03.03-.04.02-.04.03-.04.03-.04.03-.04.02-.03.03-.04.02-.04.03-.04.02-.04.02-.04.02-.04.03-.03.02-.04.02-.04.02-.04.02-.04.02-.04.01-.03.02-.04.02-.04.02-.04.01-.04.02-.04.01-.04.02-.03.01-.04.02-.04.01-.04.01-.04.02-.04.01-.04.01-.03.01-.04.01-.04.01-.04.01-.04.01-.04.01-.03.01-.04.01-.04.01h-.04l-.04.02h-.08l-.03.02h-.08l-.04.01h-.04l-.04.01h-.07l-.04.01h-.12l-.04.01h-6v-8.12h6.39l.04-.01h.12l.04-.01h.04l.04-.01h.04l.04-.01h.03l.04-.01.04-.01h.04l.04-.02h.04l.04-.01.03-.01.04-.01.04-.01.04-.01.04-.02h.04l.03-.02.04-.01.04-.02.04-.01.04-.02.04-.01.04-.02.03-.02.04-.02.04-.01.04-.02.04-.02.04-.03.03-.02.04-.02.04-.03.04-.02.04-.03.04-.03.04-.03.03-.03.04-.03.04-.03.04-.04.04-.04.04-.04.03-.04.04-.04.04-.05a1.87 1.87 0 0 0 .08-.11l.04-.06.04-.07.03-.07.04-.1.04-.1.04-.13a1.8 1.8 0 0 0 .04-.2 1.93 1.93 0 0 0 .01-.25 1.8 1.8 0 0 0-.01-.25 1.7 1.7 0 0 0-.04-.2l-.04-.12-.04-.1-.04-.09-.03-.07-.04-.07-.04-.05a1.7 1.7 0 0 0-.08-.1l-.04-.06-.04-.04-.03-.04-.04-.04-.04-.03-.04-.04-.04-.03-.04-.03-.03-.03-.04-.03-.04-.03-.04-.02-.04-.03-.04-.02-.04-.03-.03-.02-.04-.02-.04-.02-.04-.02-.04-.02-.04-.01-.03-.02-.04-.02-.04-.01-.04-.02-.04-.01-.04-.01-.04-.02h-.03l-.04-.02-.04-.01-.04-.01-.04-.01-.04-.01-.04-.01-.03-.01h-.04l-.04-.02h-.04l-.04-.01h-.04l-.03-.01h-.04l-.04-.01h-.04l-.04-.01h-.04l-.04-.01h-.07v-.05h.04l.03-.01.04-.01h.04l.04-.02h.04l.04-.01.04-.01.03-.01.04-.01.04-.02h.04l.04-.02.04-.01.04-.02.03-.01.04-.02.04-.01.04-.02.04-.02.04-.02.03-.02.04-.02.04-.02.04-.02.04-.03.04-.02.04-.03.03-.03.04-.03.04-.03.04-.03.04-.04.04-.03.03-.04.04-.05.04-.04.04-.05.04-.05.04-.05.04-.07.03-.06.04-.08.04-.09.04-.1.04-.14a1.75 1.75 0 0 0 .04-.23 1.82 1.82 0 0 0 0-.18v-.2a1.77 1.77 0 0 0-.04-.23l-.04-.13-.04-.1-.04-.1-.04-.07-.03-.07-.04-.06-.04-.05-.04-.05a1.66 1.66 0 0 0-.04-.05l-.04-.04-.04-.04-.03-.04-.04-.03-.04-.04-.04-.03-.04-.03-.04-.03-.03-.03-.04-.02-.04-.03-.04-.02-.04-.02-.04-.02-.04-.02-.03-.02-.04-.02-.04-.02-.04-.01-.04-.02-.04-.02-.03-.01-.04-.01-.04-.02-.04-.01-.04-.01-.04-.01-.04-.01-.03-.01-.04-.01-.04-.01-.04-.01-.04-.01h-.04l-.04-.02h-.07l-.04-.01-.04-.01h-.04l-.04-.01h-.07l-.04-.01h-.12l-.01-.01h-.18l-.04-.01h-5.81V4.95a4 4 0 0 1 .08-.82l.04-.16.04-.14.04-.13.03-.11.04-.1.04-.1.04-.08.04-.09.04-.07.04-.08.03-.07.04-.07.04-.06.04-.06.04-.06.04-.06.03-.05.04-.06.04-.05.04-.05.04-.05.04-.04.04-.05.03-.04.04-.04.04-.05.04-.04.04-.03.04-.04.03-.04.04-.04.04-.03.04-.04.04-.03.04-.03.04-.03.03-.03.04-.03.04-.03.04-.03.04-.03.04-.03.03-.03.04-.02.04-.03.04-.02.04-.03.04-.02.04-.02.03-.02.04-.03.04-.02.04-.02.04-.02.04-.02.03-.02.04-.02.04-.01.04-.02.04-.02.04-.01.04-.02.03-.02.04-.01.04-.02.04-.01.04-.01.04-.02.03-.01.04-.01.04-.01.04-.02h.04l.04-.02h.04l.03-.02h.04l.04-.02h.04l.04-.01.04-.01.04-.01h.03l.04-.01.04-.01h.04l.04-.01h.04l.03-.01h.04l.04-.01h.08l.04-.01h.23l.04-.01h5.84z"/><path fill="#0d6db5" d="M4.38 14.8V4.96a4 4 0 0 1 .08-.81l.04-.17.03-.14.04-.13a3.87 3.87 0 0 1 .08-.21l.04-.1.04-.08.03-.09.04-.07.04-.08.04-.07.04-.06.04-.07.04-.06.03-.06.04-.06.04-.05.04-.05.04-.06.04-.05.03-.04.04-.05.04-.05.04-.04.04-.04.04-.04.03-.04.04-.04.04-.04.04-.04.04-.03.04-.04.03-.03.04-.04.04-.03.04-.03.04-.03.04-.03.04-.03.03-.03.04-.03.04-.03.04-.02.04-.03.04-.02.03-.03.04-.02.04-.03.04-.02.04-.02.04-.02.03-.03.04-.02.04-.02.04-.02.04-.01.04-.02.03-.02.04-.02.04-.02.04-.01.04-.02.04-.01.04-.02.03-.01L7 1.2l.04-.01.04-.02h.04l.04-.02.03-.01.04-.01.04-.02h.04l.04-.02h.04l.03-.02h.04l.04-.01.04-.01.04-.01h.04l.03-.02h.08L7.76 1h.19L8 .98h.08L8.1.97h.2l.04-.01h5.87V20.9a4.03 4.03 0 0 1-.04.51c0 .08-.02.16-.04.24l-.03.18-.04.15-.04.12-.04.12-.04.1-.04.1-.03.09-.04.08-.04.08-.04.08-.04.07-.04.07-.03.06a3.9 3.9 0 0 1-.04.07l-.04.06-.04.05-.04.06-.04.05-.04.05-.03.05-.04.05-.04.05-.04.05-.04.04-.04.04-.03.04-.04.05-.04.03-.04.04-.04.04-.04.04-.03.03-.04.04-.04.03-.04.03-.04.04-.04.03-.03.03-.04.03-.04.03-.04.02-.04.03-.04.03-.04.03-.03.02-.04.03-.04.02-.04.02-.04.03-.04.02-.03.02-.04.02-.04.02-.04.02-.04.02-.04.02-.03.02-.04.02-.04.02-.04.01-.04.02-.04.02-.03.01-.04.02-.04.01-.04.02-.04.01-.04.02h-.04l-.03.02-.04.01-.04.02h-.04l-.04.02h-.04l-.03.02h-.04l-.04.02h-.04l-.04.01-.04.01-.03.01h-.04l-.04.01-.04.01h-.04l-.04.01h-.03l-.04.01h-.04l-.04.01h-.08l-.04.01h-.11l-.04.01H4.38v-8.4l.08.03h.04l.03.01.04.01.04.01.04.01.04.01h.04l.03.02h.04l.04.01.04.01.04.01h.04l.04.02h.03l.04.01.04.01h.04l.04.01.04.01h.03l.04.02h.04l.04.01h.04l.04.01.03.01h.04l.04.01.04.01h.04l.04.01h.03l.04.01.04.01h.04l.04.01h.04l.04.01h.03l.04.01.04.01h.04l.04.01h.04l.03.01h.04l.04.01h.04l.04.01h.07l.04.01h.04l.04.01h.04l.04.01h.07l.04.01h.04l.04.01h.08l.03.01h.08l.04.01h.08l.03.01h.12l.04.01h.11l.04.01h.15l.04.01h.2l.03.01h1.27l.04-.01h.11l.04-.01h.08l.04-.01h.07l.04-.01h.08l.04-.01h.08l.03-.01h.04l.04-.01h.04l.04-.01h.04l.03-.01h.04l.04-.01.04-.01h.04l.04-.01.03-.01h.04l.04-.01.04-.01h.04l.04-.02h.03l.04-.01h.04l.04-.02h.04l.04-.02h.04l.03-.01.04-.01.04-.01.04-.01.04-.01.04-.01.03-.02h.04l.04-.02.04-.01.04-.01.04-.02h.03l.04-.02.04-.02.04-.01.04-.01.04-.02.03-.01.04-.02.04-.02.04-.01.04-.02.04-.02.04-.01.03-.02.04-.02.04-.02.04-.02.04-.02.04-.02.03-.02.04-.03.04-.02.04-.02.04-.03.04-.02.03-.03.04-.03.04-.02.04-.03.04-.03.04-.03.03-.04.04-.03.04-.03.04-.04.04-.04.04-.04.04-.04.03-.04.04-.04.04-.05.04-.05a2.63 2.63 0 0 0 .08-.1l.03-.06.04-.06.04-.07.04-.07.04-.08.04-.08.03-.1.04-.1.04-.12.04-.14.04-.18.04-.27.02-.4V9.09h-3.4l-.03 4.63-.01.21a2.21 2.21 0 0 1-.04.26l-.04.16-.04.11-.03.1-.04.09a1.77 1.77 0 0 1-.08.14l-.04.06-.04.05a1.7 1.7 0 0 1-.07.1l-.04.05-.04.04-.04.04-.04.03-.04.04-.03.03-.04.03-.04.03-.04.03-.04.02-.04.03-.03.02-.04.02-.04.02-.04.02-.04.02-.04.02-.03.02-.04.01-.04.02-.04.01-.04.01-.04.02H8.6l-.03.02h-.04l-.04.02h-.04l-.04.02h-.04l-.03.01H8.3l-.04.01h-.04l-.04.01h-.04l-.03.01h-.12l-.04.01h-.5l-.04-.01h-.07l-.04-.01h-.08l-.04-.01h-.07l-.04-.01h-.04l-.04-.01h-.04l-.03-.01-.04-.01h-.04l-.04-.01h-.04l-.04-.02h-.04l-.03-.01H6.6l-.04-.01-.04-.01-.04-.01h-.04l-.03-.02h-.04l-.04-.01-.04-.01-.04-.01-.04-.01-.03-.01-.04-.01-.04-.01-.04-.01-.04-.01-.04-.01-.03-.01-.04-.02h-.04l-.04-.02-.04-.01-.04-.01-.04-.01-.03-.02-.04-.01-.04-.01-.04-.02h-.04l-.04-.02-.03-.02h-.04l-.04-.02-.04-.02-.04-.01-.04-.02-.03-.01-.04-.02-.04-.01-.04-.02-.04-.01-.04-.02-.03-.01-.04-.02-.04-.01-.04-.02-.04-.02L4.8 15l-.04-.02-.03-.02-.04-.01-.04-.02-.04-.02-.04-.02-.04-.02-.03-.01-.04-.02z"/><path fill="#e01d3b" d="m15.48 10.1-.08.07V4.96a4 4 0 0 1 .08-.81l.04-.17.04-.14.04-.13.04-.1.04-.11.03-.1.04-.08.04-.08.04-.08.04-.08.04-.07.03-.06.04-.07.04-.06.04-.06.04-.06.04-.05.04-.05.03-.06.04-.05.04-.04.04-.05.04-.04.04-.05.03-.04.04-.04.04-.04.04-.04.04-.04.04-.04.03-.03.04-.04.04-.03.04-.04.04-.03.04-.03.03-.03.04-.03.04-.03.04-.03.04-.03.04-.03.04-.02.03-.03.04-.02.04-.03.04-.02.04-.03.04-.02.03-.02.04-.02.04-.03.04-.02.04-.02.04-.02.03-.01.04-.02.04-.02.04-.02.04-.02.04-.01.03-.02.04-.01.04-.02.04-.01.04-.02.04-.01.04-.02h.03l.04-.02.04-.01.04-.01.04-.02h.04l.03-.02h.04l.04-.02h.04l.04-.01.04-.01.03-.01h.04l.04-.02h.08l.04-.01.04-.01h.03L18.9 1h.08l.04-.01h.07l.04-.01h.19l.04-.01h5.87V20.9a4.02 4.02 0 0 1-.03.5l-.04.25-.04.18-.04.15-.03.12-.04.12-.04.1-.04.1-.04.09-.04.08-.03.08-.04.08-.04.07-.04.07-.04.06-.04.07-.03.06-.04.05-.04.06-.04.05-.04.05-.04.05-.03.05-.04.05-.04.05-.04.04-.04.04-.04.04-.04.05-.03.03-.04.04-.04.04-.04.04-.04.03-.04.04-.03.03-.04.03-.04.04-.04.03-.04.03-.04.03-.03.03-.04.02-.04.03-.04.03-.04.03-.04.02-.04.03-.03.02-.04.02-.04.03-.04.02-.04.02-.04.02-.03.02-.04.02-.04.02-.04.02-.04.02-.04.02-.03.02-.04.01-.04.02-.04.02-.04.01-.04.02-.03.01-.04.02-.04.01-.04.02h-.04l-.04.02-.04.01-.03.01-.04.02h-.04l-.04.02h-.04l-.04.02h-.03l-.04.02h-.04l-.04.01-.04.01h-.04l-.03.01-.04.01h-.04l-.04.01h-.04l-.04.01h-.03l-.04.01h-.08l-.04.01h-.11l-.04.01h-6v-9.2l.08.07.04.03.04.03.04.03.04.03.04.03.03.02.04.03.04.02.04.03.04.02.04.03.03.02.04.02.04.03.04.02.04.02.04.02.04.02.03.02.04.02.04.02.04.02.04.02.04.01.03.02.04.02.04.01.04.02.04.02.04.01.03.02.04.01.04.02.04.01.04.02.04.01.03.01.04.02.04.01.04.01.04.02h.04l.04.02.03.01.04.01.04.01.04.01.04.02h.04l.03.02h.04l.04.02h.04l.04.01.04.01.03.01.04.01.04.01h.04l.04.02h.04l.03.01.04.01h.04l.04.02h.08l.04.02h.07l.04.02h.08l.04.01h.03l.04.01.04.01h.04l.04.01h.07l.04.01h.04l.04.01h.04l.04.01h.07l.04.01h.08l.04.01h.07l.04.01h.08l.04.01h.15l.04.01h.19l.04.01h.46l.04.01h.58l.03-.01H21l.02-.01h.16l.04-.01h.1l.04-.01h.08l.03-.01h.08l.04-.01h.08l.04-.01h.03l.04-.01h.04l.04-.01h.08l.03-.01h.04l.04-.01h.04l.04-.01h.04l.03-.01h.04l.04-.01h.04l.04-.01.04-.01h.03l.04-.01h.04l.04-.01h.04l.04-.02h.07l.04-.01.04-.01h.04l.04-.01.04-.01h.03l.04-.01.04-.01h.04l.04-.01.04-.01h.03l.04-.02h.04l.04-.01h.04l.04-.02h.04l.03-.01h.04l.04-.02h.04l.04-.01.04-.01.03-.01h.04l.04-.02h.04l.04-.01.04-.01.03-.01h.04l.04-.02h.04l.04-.02h.04l.03-.01v-1.7l-.03.03-.04.02-.04.02-.04.01-.04.02-.04.02-.03.02-.04.02-.04.01-.04.02-.04.02-.04.02-.03.01-.04.02-.04.02-.04.01-.04.02-.04.02-.04.01-.03.02-.04.01-.04.02-.04.01-.04.02-.04.01-.03.02h-.04l-.04.02-.04.02-.04.01-.04.01-.03.02h-.04l-.04.02-.04.01-.04.02h-.04l-.03.02-.04.01-.04.01-.04.01-.04.01-.04.01-.04.01-.03.01-.04.01-.04.01-.04.01-.04.01-.04.01-.03.01h-.04l-.04.02h-.04l-.04.01-.04.01h-.03l-.04.02h-.08l-.04.02h-.07l-.04.01-.04.01h-.04l-.04.01h-.04l-.04.01h-.03l-.04.01h-.08l-.04.01h-.04l-.03.01h-.1l-.02.01h-.15l-.04.01h-.58l-.04-.01h-.07l-.04-.01h-.04l-.04-.01h-.04l-.03-.01h-.04l-.04-.01-.04-.01h-.04l-.04-.01-.03-.01-.04-.01h-.04l-.04-.02h-.04l-.04-.02h-.04l-.03-.02-.04-.01-.04-.01-.04-.02h-.04l-.04-.02-.03-.02-.04-.01-.04-.02-.04-.01-.04-.02-.04-.02-.03-.02-.04-.01-.04-.02-.04-.02-.04-.03-.04-.02-.03-.02-.04-.03-.04-.02-.04-.03-.04-.02-.04-.03-.04-.03-.03-.03-.04-.03-.04-.04-.04-.03-.04-.04-.04-.04-.03-.04-.04-.04-.04-.05-.04-.04-.04-.05a2.28 2.28 0 0 1-.04-.06l-.03-.05-.04-.06-.04-.07-.04-.06-.04-.08-.04-.08a2.58 2.58 0 0 1-.07-.2l-.04-.11-.04-.14-.04-.19-.04-.28-.01-.34.01-.35.04-.28.04-.18.04-.14.04-.12a2.63 2.63 0 0 1 .07-.2l.04-.08.04-.07.04-.07.04-.06.04-.06.03-.06.04-.05.04-.05.04-.05.04-.04.04-.05.03-.04.04-.04.04-.03.04-.04.04-.03.04-.03.03-.03.04-.03.04-.03.04-.03.04-.03.04-.02.04-.02.03-.03.04-.02.04-.02.04-.02.04-.02.04-.02.03-.02.04-.02.04-.01.04-.02.04-.01.04-.02.03-.01.04-.02.04-.01.04-.01.04-.02h.04l.03-.02h.04l.04-.02h.04l.04-.02h.04l.04-.01.03-.01h.04l.04-.02h.08l.04-.02h.07l.04-.01h.08l.04-.01h.07l.04-.01h.15l.04-.01h.46l.04.01h.08l.04.01h.07l.04.01h.08l.04.01h.04l.03.01h.04l.04.01h.04l.04.01h.04l.04.01.03.01h.04l.04.01.04.01h.04l.04.01.03.01h.04l.04.02h.04l.04.01.04.01.03.01.04.01h.04l.04.02h.04l.04.02h.03l.04.02h.04l.04.02.04.01.04.01.04.01.03.01.04.02h.04l.04.02.04.01.04.02h.03l.04.02.04.01.04.02.04.01.04.02.03.01.04.02.04.01.04.01.04.02.04.02.03.01.04.02.04.01.04.02.04.02.04.01.04.02.03.02.04.01.04.02.04.02.04.02.04.01.03.02.04.02.04.02.04.02.04.02.04.02.03.02v-1.7h-.03l-.04-.01H24l-.04-.02h-.04l-.04-.02h-.03l-.04-.01-.04-.01-.04-.01h-.04l-.04-.02h-.03l-.04-.01-.04-.01h-.04l-.04-.02h-.04l-.04-.01-.03-.01h-.04l-.04-.01-.04-.01-.04-.01h-.04l-.03-.01-.04-.01h-.04L23 9.12h-.08l-.03-.02h-.08l-.04-.02h-.08l-.03-.01-.04-.01h-.04l-.04-.01h-.04l-.04-.01-.04-.01h-.03l-.04-.01h-.04l-.04-.01h-.04L22.2 9h-.11l-.04-.01h-.04l-.04-.01h-.03l-.04-.01h-.04l-.04-.01h-.08l-.03-.01h-.04l-.04-.01h-.08l-.04-.01h-.07l-.04-.01h-.08l-.04-.01h-.11l-.04-.01h-.19l-.04-.01h-.27l-.04-.01h-1.04l-.03.01h-.16l-.04.01h-.11l-.04.01h-.11l-.04.01h-.08l-.04.01h-.04l-.03.01h-.08l-.04.01h-.04l-.04.01h-.04l-.03.01h-.04l-.04.01h-.04L18.4 9h-.04l-.03.01h-.04l-.04.01h-.04l-.04.02h-.07l-.04.02h-.08l-.04.02h-.04l-.04.01-.03.01h-.04l-.04.02h-.04l-.04.01-.04.01-.03.01-.04.01h-.04l-.04.02h-.04l-.04.02h-.03l-.04.02-.04.01-.04.01-.04.01-.04.01-.03.02h-.04l-.04.02-.04.01-.04.01-.04.02-.04.01-.03.01-.04.02-.04.01-.04.02-.04.01-.04.02-.03.01-.04.02-.04.01-.04.02-.04.02-.04.01-.03.02-.04.02-.04.02-.04.02-.04.02-.04.01-.03.02-.04.03-.04.02-.04.02-.04.02-.04.02-.04.02-.03.03-.04.02-.04.03-.04.02-.04.03-.04.02-.03.03-.04.03-.04.03-.04.02-.04.03-.04.04z"/></svg>