<svg xmlns="http://www.w3.org/2000/svg" width="62.06" height="65" viewBox="0 0 62.06 70">
    <defs>
        <style>
        .cls-1 {
            fill: #001e42;
        }
        </style>
    </defs>
    <g data-name="Group 132">
    	<path id="Path_98" data-name="Path 98" class="cls-1" d="M58,37.29l-1.73-3.8A25.57,25.57,0,0,0,38.77,15.1l7.62-7.6-6-7.5h-18L16.54,7.5l7.64,7.64a25.35,25.35,0,0,0-8.45,4.43l-2-4.82L8.9,26.17,0,29.74,6.77,33.6A25.47,25.47,0,0,0,56,46.83l2.14-5.33,4-2.46Zm-3.87-1.63-.76,1.64-3.48,1.56A18.4,18.4,0,0,0,32.66,21.18l4-4A23,23,0,0,1,54.15,35.66ZM31.46,17.49,27.59,8.67h7.88Zm.08,6.2A15.85,15.85,0,1,1,16,42.64l2.54-7.86,9.09-5-6.19-2.41a15.75,15.75,0,0,1,10.09-3.65Zm3.94-8.89,2.78-6.12h3.36ZM39.21,2.55l2.85,3.59H38.71L36.37,2.55Zm-9.48,0h3.6l2.35,3.59H27.31Zm-6.08,0h3L24.24,6.14h-3.4ZM21.3,8.68h3.52L27.57,15Zm4.95,8.54,4,4A18.28,18.28,0,0,0,18.8,26.3l-.33-.12L16.75,22a22.79,22.79,0,0,1,9.5-4.81ZM5.39,30.15l5.45-2,2.86-7.33,2.82,7.33,5.58,2L16.43,33,13.7,42.17,10.93,33ZM31.54,62.47A23,23,0,0,1,8.61,39.52,22.39,22.39,0,0,1,9,35.35l4.73,14.34.93-2.89a18.38,18.38,0,0,0,35.27-7.27v-.2l3.4,2.18.81,2a23,23,0,0,1-22.6,19Zm24.82-22.4-.65,2.19-.66-2.19-1.34-.69L55,38.93l.73-1.88.72,1.88,1.29.45Z" transform="translate(0 0)" />
    </g>
</svg>