<svg xmlns="http://www.w3.org/2000/svg" width="24" height="24" viewBox="0 0 24 24">
    <path fill="#001e42" fill-rule="nonzero" d="M14 3a2.753 2.753 0 0 1 2.75 2.75c0 .45-.11.875-.303 1.25H19v13H5V7h2.553a2.729 2.729 0 0 1-.303-1.25A2.753 2.753 0 0 1 10 3a2.74 2.74 0 0 1 2 .869A2.74 2.74 0 0 1 14 3zm3.5 9h-4.75v6.5h4.75V12zm-6.25 0H6.5v6.5h4.75V12zm6.25-3.5h-4.75v2h4.75v-2zm-6.25 0H6.5v2h4.75v-2zm2.75-4c-.69 0-1.25.56-1.25 1.25V7H14c.69 0 1.25-.56 1.25-1.25S14.69 4.5 14 4.5zm-4 0c-.69 0-1.25.56-1.25 1.25S9.31 7 10 7h1.25V5.75c0-.69-.56-1.25-1.25-1.25z"/>
</svg>
