<svg xmlns="http://www.w3.org/2000/svg" width="24" height="24" viewBox="0 0 24 24">
    <path fill="#001e42" fill-rule="nonzero" d="M20.5 15.603h-.698c-.491-.777-1.339-1.293-2.302-1.293-.45 0-.875.115-1.25.314V9.138h2.311l1.939 3.565v2.9zm-3 2.845c-.69 0-1.25-.58-1.25-1.293s.56-1.293 1.25-1.293 1.25.58 1.25 1.293-.56 1.293-1.25 1.293zm-8.698-2.845C8.31 14.826 7.463 14.31 6.5 14.31c-.963 0-1.81.516-2.302 1.293H3.5V6.552h11.25v9.051H8.802zM6.5 18.448c-.69 0-1.25-.58-1.25-1.293s.56-1.293 1.25-1.293 1.25.58 1.25 1.293-.56 1.293-1.25 1.293zM19.439 7.586H16.25V5H2v12.155h1.75C3.75 18.724 4.984 20 6.5 20s2.75-1.276 2.75-2.845h5.5c0 1.569 1.234 2.845 2.75 2.845s2.75-1.276 2.75-2.845H22v-4.858l-2.561-4.71z"/>
</svg>
